<svg xmlns="http://www.w3.org/2000/svg" viewBox="0 8.859999656677246 273.7300109863281 46.93000030517578" data-asc="0.9052734375" width="273.7300109863281" height="46.93000030517578"><defs/><g><g fill="#ffffff"><g transform="translate(0, 0)"><path d="M13.87 45.26L0 9.47L5.13 9.47L14.43 35.47Q15.55 38.60 16.31 41.33Q17.14 38.40 18.24 35.47L27.91 9.47L32.74 9.47L18.73 45.26L13.87 45.26ZM34.38 55.25L33.89 51.12Q35.33 51.51 36.40 51.51Q37.87 51.51 38.75 51.03Q39.62 50.54 40.19 49.66Q40.60 49.00 41.53 46.39Q41.65 46.02 41.92 45.31L32.08 19.34L36.82 19.34L42.21 34.35Q43.26 37.21 44.09 40.36Q44.85 37.33 45.90 34.45L51.44 19.34L55.83 19.34L45.97 45.70Q44.38 49.98 43.51 51.59Q42.33 53.76 40.82 54.77Q39.31 55.79 37.21 55.79Q35.94 55.79 34.38 55.25ZM57.93 32.30Q57.93 25.10 61.94 21.63Q65.28 18.75 70.09 18.75Q75.44 18.75 78.83 22.25Q82.23 25.76 82.23 31.93Q82.23 36.94 80.73 39.81Q79.22 42.68 76.35 44.26Q73.49 45.85 70.09 45.85Q64.65 45.85 61.29 42.36Q57.93 38.87 57.93 32.30M62.45 32.30Q62.45 37.28 64.62 39.76Q66.80 42.24 70.09 42.24Q73.36 42.24 75.54 39.75Q77.71 37.26 77.71 32.15Q77.71 27.34 75.52 24.87Q73.34 22.39 70.09 22.39Q66.80 22.39 64.62 24.85Q62.45 27.32 62.45 32.30ZM87.38 45.26L87.38 19.34L91.31 19.34L91.31 22.97Q92.53 21.07 94.56 19.91Q96.58 18.75 99.17 18.75Q102.05 18.75 103.89 19.95Q105.74 21.14 106.49 23.29Q109.57 18.75 114.50 18.75Q118.36 18.75 120.43 20.89Q122.51 23.02 122.51 27.47L122.51 45.26L118.14 45.26L118.14 28.93Q118.14 26.29 117.71 25.13Q117.29 23.97 116.16 23.27Q115.04 22.56 113.53 22.56Q110.79 22.56 108.98 24.38Q107.18 26.20 107.18 30.20L107.18 45.26L102.78 45.26L102.78 28.42Q102.78 25.49 101.71 24.02Q100.63 22.56 98.19 22.56Q96.34 22.56 94.76 23.54Q93.19 24.51 92.48 26.39Q91.77 28.27 91.77 31.81L91.77 45.26L87.38 45.26ZM141.87 33.76L146.34 33.37Q146.66 36.06 147.81 37.78Q148.97 39.50 151.42 40.56Q153.86 41.63 156.91 41.63Q159.62 41.63 161.69 40.82Q163.77 40.01 164.78 38.61Q165.80 37.21 165.80 35.55Q165.80 33.86 164.82 32.60Q163.84 31.35 161.60 30.49Q160.16 29.93 155.22 28.75Q150.29 27.56 148.32 26.51Q145.75 25.17 144.49 23.18Q143.24 21.19 143.24 18.73Q143.24 16.02 144.78 13.66Q146.31 11.30 149.27 10.08Q152.22 8.86 155.83 8.86Q159.81 8.86 162.85 10.14Q165.89 11.43 167.53 13.92Q169.17 16.41 169.29 19.56L164.75 19.90Q164.38 16.50 162.27 14.77Q160.16 13.04 156.03 13.04Q151.73 13.04 149.77 14.61Q147.80 16.19 147.80 18.41Q147.80 20.34 149.19 21.58Q150.56 22.83 156.34 24.13Q162.11 25.44 164.26 26.42Q167.38 27.86 168.87 30.07Q170.36 32.28 170.36 35.16Q170.36 38.01 168.73 40.54Q167.09 43.07 164.03 44.47Q160.96 45.87 157.13 45.87Q152.27 45.87 148.99 44.46Q145.70 43.04 143.84 40.20Q141.97 37.35 141.87 33.76ZM193.19 42.07Q190.75 44.14 188.49 45.00Q186.23 45.85 183.64 45.85Q179.37 45.85 177.08 43.76Q174.78 41.67 174.78 38.43Q174.78 36.52 175.65 34.95Q176.51 33.37 177.92 32.42Q179.32 31.47 181.08 30.98Q182.37 30.64 184.99 30.32Q190.31 29.69 192.82 28.81Q192.85 27.91 192.85 27.66Q192.85 24.98 191.60 23.88Q189.92 22.39 186.60 22.39Q183.50 22.39 182.02 23.47Q180.54 24.56 179.83 27.32L175.54 26.73Q176.12 23.97 177.47 22.28Q178.81 20.58 181.35 19.67Q183.89 18.75 187.23 18.75Q190.55 18.75 192.63 19.53Q194.70 20.31 195.68 21.50Q196.66 22.68 197.05 24.49Q197.27 25.61 197.27 28.54L197.27 34.40Q197.27 40.53 197.55 42.15Q197.83 43.77 198.66 45.26L194.07 45.26Q193.38 43.90 193.19 42.07M192.82 32.25Q190.43 33.23 185.64 33.91Q182.93 34.30 181.81 34.79Q180.69 35.28 180.08 36.22Q179.47 37.16 179.47 38.31Q179.47 40.06 180.80 41.24Q182.13 42.41 184.69 42.41Q187.23 42.41 189.21 41.30Q191.19 40.19 192.11 38.26Q192.82 36.77 192.82 33.86L192.82 32.25ZM203.27 47.41L207.54 48.05Q207.81 50.02 209.03 50.93Q210.67 52.15 213.50 52.15Q216.55 52.15 218.21 50.93Q219.87 49.71 220.46 47.51Q220.80 46.17 220.78 41.87Q217.90 45.26 213.60 45.26Q208.25 45.26 205.32 41.41Q202.39 37.55 202.39 32.15Q202.39 28.44 203.74 25.31Q205.08 22.17 207.63 20.46Q210.18 18.75 213.62 18.75Q218.21 18.75 221.19 22.46L221.19 19.34L225.24 19.34L225.24 41.75Q225.24 47.80 224.01 50.33Q222.78 52.86 220.10 54.32Q217.43 55.79 213.53 55.79Q208.89 55.79 206.03 53.70Q203.17 51.61 203.27 47.41M206.91 31.84Q206.91 36.94 208.94 39.28Q210.96 41.63 214.01 41.63Q217.04 41.63 219.09 39.29Q221.14 36.96 221.14 31.98Q221.14 27.22 219.03 24.80Q216.92 22.39 213.94 22.39Q211.01 22.39 208.96 24.77Q206.91 27.15 206.91 31.84ZM248.80 42.07Q246.36 44.14 244.10 45.00Q241.85 45.85 239.26 45.85Q234.99 45.85 232.69 43.76Q230.40 41.67 230.40 38.43Q230.40 36.52 231.26 34.95Q232.13 33.37 233.53 32.42Q234.94 31.47 236.69 30.98Q237.99 30.64 240.60 30.32Q245.92 29.69 248.44 28.81Q248.46 27.91 248.46 27.66Q248.46 24.98 247.22 23.88Q245.53 22.39 242.21 22.39Q239.11 22.39 237.63 23.47Q236.16 24.56 235.45 27.32L231.15 26.73Q231.74 23.97 233.08 22.28Q234.42 20.58 236.96 19.67Q239.50 18.75 242.85 18.75Q246.17 18.75 248.24 19.53Q250.32 20.31 251.29 21.50Q252.27 22.68 252.66 24.49Q252.88 25.61 252.88 28.54L252.88 34.40Q252.88 40.53 253.16 42.15Q253.44 43.77 254.27 45.26L249.68 45.26Q249.00 43.90 248.80 42.07M248.44 32.25Q246.04 33.23 241.26 33.91Q238.55 34.30 237.43 34.79Q236.30 35.28 235.69 36.22Q235.08 37.16 235.08 38.31Q235.08 40.06 236.41 41.24Q237.74 42.41 240.31 42.41Q242.85 42.41 244.82 41.30Q246.80 40.19 247.73 38.26Q248.44 36.77 248.44 33.86L248.44 32.25ZM259.64 45.26L259.64 19.34L263.60 19.34L263.60 23.27Q265.11 20.51 266.39 19.63Q267.68 18.75 269.21 18.75Q271.44 18.75 273.73 20.17L272.22 24.24Q270.61 23.29 268.99 23.29Q267.55 23.29 266.41 24.16Q265.26 25.02 264.77 26.56Q264.04 28.91 264.04 31.69L264.04 45.26L259.64 45.26Z"/></g></g></g></svg>