<svg xmlns="http://www.w3.org/2000/svg" viewBox="0 8.84000015258789 260.2300109863281 37.029998779296875" data-asc="0.9052734375" width="260.2300109863281" height="37.029998779296875"><defs/><g><g fill="#9141ac"><g transform="translate(0, 0)"><path d="M0 45.26L0 9.47L13.50 9.47Q17.07 9.47 18.95 9.81Q21.58 10.25 23.36 11.49Q25.15 12.72 26.23 14.94Q27.32 17.16 27.32 19.82Q27.32 24.39 24.41 27.55Q21.51 30.71 13.92 30.71L4.74 30.71L4.74 45.26L0 45.26M4.74 26.49L13.99 26.49Q18.58 26.49 20.51 24.78Q22.44 23.07 22.44 19.97Q22.44 17.72 21.30 16.13Q20.17 14.53 18.31 14.01Q17.11 13.70 13.89 13.70L4.74 13.70L4.74 26.49ZM33.42 45.26L33.42 9.47L49.29 9.47Q54.08 9.47 56.57 10.44Q59.06 11.40 60.55 13.84Q62.04 16.28 62.04 19.24Q62.04 23.05 59.57 25.66Q57.10 28.27 51.95 28.98Q53.83 29.88 54.81 30.76Q56.88 32.67 58.74 35.52L64.97 45.26L59.01 45.26L54.27 37.82Q52.20 34.59 50.85 32.89Q49.51 31.18 48.45 30.49Q47.39 29.81 46.29 29.54Q45.48 29.37 43.65 29.37L38.16 29.37L38.16 45.26L33.42 45.26M38.16 25.27L48.34 25.27Q51.59 25.27 53.42 24.60Q55.25 23.93 56.20 22.45Q57.15 20.97 57.15 19.24Q57.15 16.70 55.31 15.06Q53.47 13.43 49.49 13.43L38.16 13.43L38.16 25.27ZM68.02 27.83Q68.02 18.92 72.80 13.88Q77.59 8.84 85.16 8.84Q90.11 8.84 94.09 11.21Q98.07 13.57 100.16 17.81Q102.25 22.05 102.25 27.42Q102.25 32.86 100.05 37.16Q97.85 41.46 93.82 43.66Q89.79 45.87 85.13 45.87Q80.08 45.87 76.10 43.43Q72.12 40.99 70.07 36.77Q68.02 32.54 68.02 27.83M72.90 27.91Q72.90 34.38 76.38 38.10Q79.86 41.82 85.11 41.82Q90.45 41.82 93.91 38.06Q97.36 34.30 97.36 27.39Q97.36 23.02 95.89 19.76Q94.41 16.50 91.56 14.71Q88.72 12.92 85.18 12.92Q80.15 12.92 76.53 16.37Q72.90 19.82 72.90 27.91ZM105.93 35.11L110.21 34.52Q110.38 38.62 111.74 40.14Q113.11 41.65 115.53 41.65Q117.31 41.65 118.60 40.83Q119.90 40.01 120.39 38.61Q120.87 37.21 120.87 34.13L120.87 9.47L125.61 9.47L125.61 33.86Q125.61 38.35 124.52 40.82Q123.44 43.29 121.08 44.58Q118.73 45.87 115.55 45.87Q110.84 45.87 108.34 43.16Q105.83 40.45 105.93 35.11ZM133.45 45.26L133.45 9.47L159.33 9.47L159.33 13.70L138.18 13.70L138.18 24.66L157.98 24.66L157.98 28.86L138.18 28.86L138.18 41.04L160.16 41.04L160.16 45.26L133.45 45.26ZM192.24 32.71L196.97 33.91Q195.48 39.75 191.61 42.81Q187.74 45.87 182.15 45.87Q176.37 45.87 172.74 43.52Q169.12 41.16 167.22 36.69Q165.33 32.23 165.33 27.10Q165.33 21.51 167.47 17.35Q169.60 13.18 173.55 11.02Q177.49 8.86 182.23 8.86Q187.60 8.86 191.26 11.60Q194.92 14.33 196.36 19.29L191.70 20.39Q190.45 16.48 188.09 14.70Q185.72 12.92 182.13 12.92Q178.00 12.92 175.23 14.89Q172.46 16.87 171.34 20.20Q170.21 23.54 170.21 27.08Q170.21 31.64 171.55 35.05Q172.88 38.45 175.68 40.14Q178.49 41.82 181.76 41.82Q185.74 41.82 188.50 39.53Q191.26 37.23 192.24 32.71ZM211.91 45.26L211.91 13.70L200.12 13.70L200.12 9.47L228.49 9.47L228.49 13.70L216.65 13.70L216.65 45.26L211.91 45.26ZM231.74 33.76L236.21 33.37Q236.52 36.06 237.68 37.78Q238.84 39.50 241.28 40.56Q243.73 41.63 246.78 41.63Q249.49 41.63 251.56 40.82Q253.64 40.01 254.65 38.61Q255.66 37.21 255.66 35.55Q255.66 33.86 254.69 32.60Q253.71 31.35 251.46 30.49Q250.02 29.93 245.09 28.75Q240.16 27.56 238.18 26.51Q235.62 25.17 234.36 23.18Q233.11 21.19 233.11 18.73Q233.11 16.02 234.64 13.66Q236.18 11.30 239.14 10.08Q242.09 8.86 245.70 8.86Q249.68 8.86 252.72 10.14Q255.76 11.43 257.40 13.92Q259.03 16.41 259.16 19.56L254.61 19.90Q254.25 16.50 252.14 14.77Q250.02 13.04 245.90 13.04Q241.60 13.04 239.64 14.61Q237.67 16.19 237.67 18.41Q237.67 20.34 239.06 21.58Q240.43 22.83 246.20 24.13Q251.98 25.44 254.13 26.42Q257.25 27.86 258.74 30.07Q260.23 32.28 260.23 35.16Q260.23 38.01 258.59 40.54Q256.96 43.07 253.89 44.47Q250.83 45.87 247.00 45.87Q242.14 45.87 238.85 44.46Q235.57 43.04 233.70 40.20Q231.84 37.35 231.74 33.76Z"/></g></g></g></svg>