<?xml version="1.0" encoding="UTF-8"?><svg xmlns="http://www.w3.org/2000/svg" viewBox="0 0 1000 1000" x="0px" y="0px" width="1000px" height="1000px" version="1.1" xmlns:xlink="http://www.w3.org/1999/xlink"><g style="isolation:isolate"><g id="Layer_1" data-name="Layer 1"><path d="M398,298H674a18,18,0,0,1,18,18V675.742A18.258,18.258,0,0,1,673.742,694H398a0,0,0,0,1,0,0V298A0,0,0,0,1,398,298Z" fill="#0a7362" stroke="#0a7362" stroke-linecap="round" stroke-linejoin="round" stroke-width="8"/><rect x="616" y="290" width="24" height="412" rx="5" stroke-width="8" stroke="#0a7362" stroke-linecap="round" stroke-linejoin="round" fill="#0a7362"/><polygon points="459 739.742 429 723 429 694 459 694 459 739.742" fill="#0a7362" stroke="#0a7362" stroke-linecap="round" stroke-linejoin="round" stroke-width="8"/><path d="M388,283H664a18,18,0,0,1,18,18V660.742A18.258,18.258,0,0,1,663.742,679H388a0,0,0,0,1,0,0V283A0,0,0,0,1,388,283Z" fill="#4c5b60"/><g opacity="0.2"><path d="M682,657.38v3.36c0,.3-.01.6-.02.9l-17.35,17.35c-.21.01-.42.01-.63.01h-3.62Z" fill="#102d3b"/><polygon points="682 643.38 682 647.62 650.62 679 646.38 679 682 643.38" fill="#102d3b"/><polygon points="682 629.38 682 633.62 636.62 679 632.38 679 682 629.38" fill="#102d3b"/><polygon points="682 615.38 682 619.62 622.62 679 618.38 679 682 615.38" fill="#102d3b"/><polygon points="682 601.38 682 605.62 608.62 679 604.38 679 682 601.38" fill="#102d3b"/><polygon points="682 587.38 682 591.62 594.62 679 590.38 679 682 587.38" fill="#102d3b"/><polygon points="682 573.38 682 577.62 580.62 679 576.38 679 682 573.38" fill="#102d3b"/><polygon points="682 559.38 682 563.62 566.62 679 562.38 679 682 559.38" fill="#102d3b"/><polygon points="682 545.38 682 549.62 552.62 679 548.38 679 682 545.38" fill="#102d3b"/><polygon points="682 531.38 682 535.62 538.62 679 534.38 679 682 531.38" fill="#102d3b"/><polygon points="682 517.38 682 521.62 524.62 679 520.38 679 682 517.38" fill="#102d3b"/><polygon points="682 503.38 682 507.62 510.62 679 506.38 679 682 503.38" fill="#102d3b"/><polygon points="682 489.38 682 493.62 496.62 679 492.38 679 682 489.38" fill="#102d3b"/><polygon points="682 475.38 682 479.62 482.62 679 478.38 679 682 475.38" fill="#102d3b"/><polygon points="682 461.38 682 465.62 468.62 679 464.38 679 682 461.38" fill="#102d3b"/><polygon points="682 447.38 682 451.62 454.62 679 450.38 679 682 447.38" fill="#102d3b"/><polygon points="682 433.38 682 437.62 440.62 679 436.38 679 682 433.38" fill="#102d3b"/><polygon points="682 419.38 682 423.62 426.62 679 422.38 679 682 419.38" fill="#102d3b"/><polygon points="682 405.38 682 409.62 412.62 679 408.38 679 682 405.38" fill="#102d3b"/><polygon points="682 391.38 682 395.62 398.62 679 394.38 679 682 391.38" fill="#102d3b"/><polygon points="682 377.38 682 381.62 388 675.62 388 671.38 682 377.38" fill="#102d3b"/><polygon points="682 363.38 682 367.62 388 661.62 388 657.38 682 363.38" fill="#102d3b"/><polygon points="682 349.38 682 353.62 388 647.62 388 643.38 682 349.38" fill="#102d3b"/><polygon points="682 335.38 682 339.62 388 633.62 388 629.38 682 335.38" fill="#102d3b"/><polygon points="682 321.38 682 325.62 388 619.62 388 615.38 682 321.38" fill="#102d3b"/><polygon points="682 307.38 682 311.62 388 605.62 388 601.38 682 307.38" fill="#102d3b"/><path d="M681.76,297.86,388,591.62v-4.24L680.88,294.5A16.928,16.928,0,0,1,681.76,297.86Z" fill="#102d3b"/><path d="M677.1,288.52,388,577.62v-4.24L674.84,286.54A17.049,17.049,0,0,1,677.1,288.52Z" fill="#102d3b"/><path d="M668.15,283.47,388,563.62v-4.24L664.37,283.01A18.1,18.1,0,0,1,668.15,283.47Z" fill="#102d3b"/><polygon points="654.62 283 388 549.62 388 545.38 650.38 283 654.62 283" fill="#102d3b"/><polygon points="640.62 283 388 535.62 388 531.38 636.38 283 640.62 283" fill="#102d3b"/><polygon points="626.62 283 388 521.62 388 517.38 622.38 283 626.62 283" fill="#102d3b"/><polygon points="612.62 283 388 507.62 388 503.38 608.38 283 612.62 283" fill="#102d3b"/><polygon points="598.62 283 388 493.62 388 489.38 594.38 283 598.62 283" fill="#102d3b"/><polygon points="584.62 283 388 479.62 388 475.38 580.38 283 584.62 283" fill="#102d3b"/><polygon points="570.62 283 388 465.62 388 461.38 566.38 283 570.62 283" fill="#102d3b"/><polygon points="556.62 283 388 451.62 388 447.38 552.38 283 556.62 283" fill="#102d3b"/><polygon points="542.62 283 388 437.62 388 433.38 538.38 283 542.62 283" fill="#102d3b"/><polygon points="528.62 283 388 423.62 388 419.38 524.38 283 528.62 283" fill="#102d3b"/><polygon points="514.62 283 388 409.62 388 405.38 510.38 283 514.62 283" fill="#102d3b"/><polygon points="500.62 283 388 395.62 388 391.38 496.38 283 500.62 283" fill="#102d3b"/><polygon points="486.62 283 388 381.62 388 377.38 482.38 283 486.62 283" fill="#102d3b"/><polygon points="472.62 283 388 367.62 388 363.38 468.38 283 472.62 283" fill="#102d3b"/><polygon points="458.62 283 388 353.62 388 349.38 454.38 283 458.62 283" fill="#102d3b"/><polygon points="444.62 283 388 339.62 388 335.38 440.38 283 444.62 283" fill="#102d3b"/><polygon points="430.62 283 388 325.62 388 321.38 426.38 283 430.62 283" fill="#102d3b"/><polygon points="416.62 283 388 311.62 388 307.38 412.38 283 416.62 283" fill="#102d3b"/><polygon points="402.62 283 388 297.62 388 293.38 398.38 283 402.62 283" fill="#102d3b"/></g><rect x="617" y="283" width="24" height="396" fill="#526770" style="mix-blend-mode:overlay"/><path d="M422,683H388a4,4,0,0,1-4-4V283a4,4,0,0,1,4-4h34a4,4,0,0,1,4,4V679A4,4,0,0,1,422,683Zm-30-8h26V287H392Z" fill="#102d3b"/><rect x="388" y="283" width="17" height="396" fill="#526770" opacity="0.37" style="mix-blend-mode:screen"/><rect x="388" y="397" width="294" height="112" fill="#ff9852"/><path d="M519.236,431.432a9.787,9.787,0,0,1-1.15,5.076,10.882,10.882,0,0,1-2.709,3.1,9.8,9.8,0,0,1-6.19,1.737h-11.1V420.773h8.551a23.4,23.4,0,0,1,3.3.2,14.562,14.562,0,0,1,2.471.565,9.254,9.254,0,0,1,3.251,1.788,9.446,9.446,0,0,1,1.848,2.034,10.006,10.006,0,0,1,1.263,2.717A11.548,11.548,0,0,1,519.236,431.432Zm-6.308-.268a6.881,6.881,0,0,0-.958-3.912,4.688,4.688,0,0,0-2.3-1.877,8.155,8.155,0,0,0-2.738-.475h-2.643v12.187h2.643a7.558,7.558,0,0,0,4.215-1.158Q512.928,434.771,512.928,431.164Z" fill="#d85639"/><path d="M545.081,431.045a10.839,10.839,0,0,1-1.328,5.3,9.608,9.608,0,0,1-3.957,3.845,13.258,13.258,0,0,1-6.4,1.425,13.006,13.006,0,0,1-6.458-1.485,9.643,9.643,0,0,1-3.925-3.9,11.132,11.132,0,0,1-.008-10.369,9.561,9.561,0,0,1,3.927-3.889,13.094,13.094,0,0,1,6.464-1.477,14.278,14.278,0,0,1,5.084.846,10.184,10.184,0,0,1,3.674,2.293,9.667,9.667,0,0,1,2.183,3.37A11.13,11.13,0,0,1,545.081,431.045Zm-6.324,0a6.247,6.247,0,0,0-.341-2.115,4.505,4.505,0,0,0-1.032-1.662,4.769,4.769,0,0,0-1.685-1.1,6.231,6.231,0,0,0-2.3-.394,5.284,5.284,0,1,0,0,10.555,5.862,5.862,0,0,0,2.91-.675,4.5,4.5,0,0,0,1.826-1.871A5.827,5.827,0,0,0,538.757,431.045Z" fill="#d85639"/><path d="M566.933,425.775h-7.541v15.573H553.2V425.775H545.66v-5h21.273Z" fill="#d85639"/><path d="M517.485,464.4c-.445.168-.827.307-1.143.415s-.621.208-.913.3-.715.2-1.269.342a27.067,27.067,0,0,1-2.813.5,24.7,24.7,0,0,1-2.962.171,14.476,14.476,0,0,1-5.789-1.144,9.494,9.494,0,0,1-4.253-3.547,10.451,10.451,0,0,1-1.6-5.909,12.4,12.4,0,0,1,.824-4.431,7.76,7.76,0,0,1,2.516-3.481,11.723,11.723,0,0,1,2.828-1.655,12.11,12.11,0,0,1,2.8-.764,21.586,21.586,0,0,1,3.014-.193,20.431,20.431,0,0,1,4.483.408q1.767.408,3.874,1.076v4.869a17.144,17.144,0,0,0-2.954-1.366,11.86,11.86,0,0,0-3.889-.549,7.971,7.971,0,0,0-4.3,1.017,5.632,5.632,0,0,0-2.241,2.427,6.668,6.668,0,0,0-.632,2.732,5.831,5.831,0,0,0,.728,2.872,5.329,5.329,0,0,0,2.2,2.108,7.363,7.363,0,0,0,3.548.794,11.157,11.157,0,0,0,2.523-.311v-2.42h-2.791v-4.142h8.21Z" fill="#d85639"/><path d="M542.291,465.855h-6.666l-1.617-3.651a15.265,15.265,0,0,0-1.6-2.932,3.454,3.454,0,0,0-1.387-1.188,4.95,4.95,0,0,0-1.746-.259h-.7v8.03h-6.2V445.281h10.555a7.673,7.673,0,0,1,4.186,1.039,6.254,6.254,0,0,1,2.353,2.523,6.49,6.49,0,0,1,.72,2.821,5.331,5.331,0,0,1-.6,2.635,4.8,4.8,0,0,1-1.269,1.566,12.645,12.645,0,0,1-1.5.935,5.941,5.941,0,0,1,1.64,1.373,17.288,17.288,0,0,1,1.76,3.214Zm-8.432-14.072a2.134,2.134,0,0,0-.935-1.99,6.158,6.158,0,0,0-3.043-.564h-1.307v4.959h1.336a6.7,6.7,0,0,0,3.111-.5A2.032,2.032,0,0,0,533.859,451.783Z" fill="#d85639"/><path d="M551.346,465.855h-6.205V445.281h6.205Z" fill="#d85639"/><path d="M577.694,455.939a9.791,9.791,0,0,1-1.15,5.077,10.882,10.882,0,0,1-2.709,3.1,9.807,9.807,0,0,1-6.19,1.736h-11.1V445.281h8.551a23.4,23.4,0,0,1,3.3.2,14.662,14.662,0,0,1,2.471.564,9.779,9.779,0,0,1,1.87.817,9.641,9.641,0,0,1,1.381.972,9.446,9.446,0,0,1,1.848,2.034,10,10,0,0,1,1.263,2.716A11.558,11.558,0,0,1,577.694,455.939Zm-6.308-.267a6.881,6.881,0,0,0-.958-3.912,4.688,4.688,0,0,0-2.3-1.877,8.155,8.155,0,0,0-2.738-.475h-2.643V461.6h2.643a7.558,7.558,0,0,0,4.215-1.158Q571.386,459.279,571.386,455.672Z" fill="#d85639"/><path d="M516.876,484.529a5.352,5.352,0,0,1-1.818,4.245,7.478,7.478,0,0,1-5.084,1.589H498.083V469.788h9.946a13.533,13.533,0,0,1,3.363.371,6.728,6.728,0,0,1,2.307,1.017,4.177,4.177,0,0,1,1.307,1.522,4.282,4.282,0,0,1,.431,1.915,4.879,4.879,0,0,1-.446,2.085,5.022,5.022,0,0,1-1.106,1.574,4.1,4.1,0,0,1-1.328.868,8.132,8.132,0,0,1,3.214,2.1A4.824,4.824,0,0,1,516.876,484.529Zm-7.244-8.818a1.987,1.987,0,0,0-.98-1.974,7.18,7.18,0,0,0-3.057-.49h-1.307v4.928h1.336a7.068,7.068,0,0,0,3.065-.489A2.013,2.013,0,0,0,509.632,475.711Zm1.01,8.565q0-2.642-3.83-2.642h-2.524v5.27h2.524Q510.642,486.9,510.642,484.276Z" fill="#d85639"/><path d="M542.869,480.061a10.837,10.837,0,0,1-1.328,5.3,9.608,9.608,0,0,1-3.957,3.845,13.257,13.257,0,0,1-6.4,1.425,13.014,13.014,0,0,1-6.458-1.484,9.648,9.648,0,0,1-3.926-3.905,11.138,11.138,0,0,1-.008-10.368,9.558,9.558,0,0,1,3.927-3.89,13.109,13.109,0,0,1,6.465-1.477,14.286,14.286,0,0,1,5.084.846,10.177,10.177,0,0,1,3.673,2.294,9.648,9.648,0,0,1,2.183,3.37A11.126,11.126,0,0,1,542.869,480.061Zm-6.324,0a6.253,6.253,0,0,0-.341-2.116,4.492,4.492,0,0,0-1.032-1.662,4.769,4.769,0,0,0-1.685-1.1,6.23,6.23,0,0,0-2.3-.393,5.283,5.283,0,1,0,0,10.554,5.861,5.861,0,0,0,2.909-.675,4.5,4.5,0,0,0,1.826-1.871A5.826,5.826,0,0,0,536.545,480.061Z" fill="#d85639"/><path d="M568.744,480.061a10.837,10.837,0,0,1-1.328,5.3,9.608,9.608,0,0,1-3.957,3.845,13.257,13.257,0,0,1-6.4,1.425,13.014,13.014,0,0,1-6.458-1.484,9.648,9.648,0,0,1-3.926-3.905,11.138,11.138,0,0,1-.008-10.368,9.558,9.558,0,0,1,3.927-3.89,13.109,13.109,0,0,1,6.465-1.477,14.286,14.286,0,0,1,5.084.846,10.177,10.177,0,0,1,3.673,2.294,9.648,9.648,0,0,1,2.183,3.37A11.126,11.126,0,0,1,568.744,480.061Zm-6.324,0a6.253,6.253,0,0,0-.341-2.116,4.492,4.492,0,0,0-1.032-1.662,4.769,4.769,0,0,0-1.685-1.1,6.23,6.23,0,0,0-2.3-.393,5.283,5.283,0,1,0,0,10.554,5.861,5.861,0,0,0,2.909-.675A4.5,4.5,0,0,0,561.8,482.8,5.826,5.826,0,0,0,562.42,480.061Z" fill="#d85639"/><path d="M594.247,490.363h-7.571l-7.867-9.634v9.634h-6.2V469.788h6.2v9.2l7.452-9.2H593l-7.66,9.634Z" fill="#d85639"/><g style="mix-blend-mode:overlay"><rect x="418" y="397" width="8" height="112" fill="#526770"/></g><rect x="388" y="397" width="17" height="112" fill="#526770" opacity="0.51" style="mix-blend-mode:screen"/><rect x="624" y="397" width="17" height="112" fill="#d85639" opacity="0.61"/><path d="M682,513H388a4,4,0,0,1-4-4V397a4,4,0,0,1,4-4H682a4,4,0,0,1,4,4V509A4,4,0,0,1,682,513Zm-290-8H678V401H392Z" fill="#102d3b"/><path d="M664,683H388a4,4,0,0,1-4-4V283a4,4,0,0,1,4-4H664a21.9,21.9,0,0,1,22,21.742v360A22.155,22.155,0,0,1,664,683Zm-272-8H664a14.146,14.146,0,0,0,14-14.258v-360A13.725,13.725,0,0,0,664,287H392Z" fill="#102d3b"/><rect x="606" y="275" width="24" height="412" rx="5.833" fill="#b7c8ce"/><path d="M624.167,691H611.833A9.844,9.844,0,0,1,602,681.167V280.833A9.844,9.844,0,0,1,611.833,271h12.334A9.844,9.844,0,0,1,634,280.833V681.167A9.844,9.844,0,0,1,624.167,691ZM611.833,279A1.835,1.835,0,0,0,610,280.833V681.167A1.835,1.835,0,0,0,611.833,683h12.334A1.835,1.835,0,0,0,626,681.167V280.833A1.835,1.835,0,0,0,624.167,279Z" fill="#102d3b"/><polygon points="449 724.742 419 708 419 679 449 679 449 724.742" fill="#ea3939"/><rect x="419" y="679" width="30" height="11.333" fill="#ea3939" opacity="0.62" style="mix-blend-mode:multiply"/><path d="M449,728.742a4,4,0,0,1-1.949-.507l-30-16.742A4,4,0,0,1,415,708V679a4,4,0,0,1,4-4h30a4,4,0,0,1,4,4v45.742a4,4,0,0,1-4,4Zm-26-23.091,22,12.278V683H423Z" fill="#102d3b"/><rect x="297" y="367" width="32" height="151" stroke-width="8" stroke="#0a7362" stroke-linecap="round" stroke-linejoin="round" fill="#0a7362"/><path d="M329.406,620H296.925a363.59,363.59,0,0,1,0-68h32.481A363.42,363.42,0,0,1,329.406,620Z" fill="#0a7362" stroke="#0a7362" stroke-linecap="round" stroke-linejoin="round" stroke-width="8"/><path d="M329.406,552H296.925c6.672-10,6.672-23,0-34h32.481C322.735,529,322.735,542,329.406,552Z" fill="#0a7362" stroke="#0a7362" stroke-linecap="round" stroke-linejoin="round" stroke-width="8"/><path d="M317.308,667c5.419-16,11.923-31,12.1-47H296.925c.176,16,6.679,31,12.1,47Z" fill="#0a7362" stroke="#0a7362" stroke-linecap="round" stroke-linejoin="round" stroke-width="8"/><rect x="309" y="667" width="8" height="6" stroke-width="8" stroke="#0a7362" stroke-linecap="round" stroke-linejoin="round" fill="#0a7362"/><line x1="313" y1="674" x2="313" y2="687" fill="#0a7362" stroke="#0a7362" stroke-linecap="round" stroke-linejoin="round" stroke-width="8"/><rect x="301" y="345" width="24" height="22" stroke-width="8" stroke="#0a7362" stroke-linecap="round" stroke-linejoin="round" fill="#0a7362"/><path d="M310.333,313h5.333A6.334,6.334,0,0,1,322,319.334V345a0,0,0,0,1,0,0H304a0,0,0,0,1,0,0V319.333A6.333,6.333,0,0,1,310.333,313Z" fill="#0a7362" stroke="#0a7362" stroke-linecap="round" stroke-linejoin="round" stroke-width="8"/><rect x="309" y="381" width="31" height="18" stroke-width="8" stroke="#0a7362" stroke-linecap="round" stroke-linejoin="round" fill="#0a7362"/><polygon points="340 460.333 329 445.833 329 399 340 399 340 460.333" fill="#0a7362" stroke="#0a7362" stroke-linecap="round" stroke-linejoin="round" stroke-width="8"/><path d="M322.406,547H289.925c6.672-10,6.672-23,0-34h32.481C315.735,524,315.735,537,322.406,547Z" fill="#102d3b"/><rect x="290" y="362" width="32" height="151" fill="#526066"/><rect x="290" y="362" width="32" height="151" fill="#526066"/><rect x="290" y="362" width="10" height="151" fill="#526066" opacity="0.64" style="mix-blend-mode:screen"/><rect x="313" y="362" width="9" height="151" fill="#526066" opacity="0.3" style="mix-blend-mode:multiply"/><path d="M322,517H290a4,4,0,0,1-4-4V362a4,4,0,0,1,4-4h32a4,4,0,0,1,4,4V513A4,4,0,0,1,322,517Zm-28-8h24V366H294Z" fill="#102d3b"/><path d="M322.406,615H289.925a363.59,363.59,0,0,1,0-68h32.481A363.42,363.42,0,0,1,322.406,615Z" fill="#42708a"/><path d="M322.406,615H289.925a363.59,363.59,0,0,1,0-68h32.481A363.42,363.42,0,0,1,322.406,615Z" fill="#526066"/><path d="M322.406,547h-7.834a363.42,363.42,0,0,1,0,68h7.834A363.42,363.42,0,0,0,322.406,547Z" fill="#526066" opacity="0.3" style="mix-blend-mode:multiply"/><path d="M301.417,614h-4.666a363.2,363.2,0,0,1-.081-67H301.5A363.761,363.761,0,0,0,301.417,614Z" fill="#ccdde5" opacity="0.73"/><path d="M322.406,619H289.925a4,4,0,0,1-3.981-3.615,366.514,366.514,0,0,1,0-68.753A4,4,0,0,1,289.925,543h32.481a4,4,0,0,1,3.983,3.632,366.515,366.515,0,0,1,0,68.753A4,4,0,0,1,322.406,619Zm-28.828-8h25.176a358.607,358.607,0,0,0-.013-60H293.59A358.712,358.712,0,0,0,293.578,611Z" fill="#102d3b"/><path d="M324,596H288a4,4,0,0,1-4-4V571a4,4,0,0,1,4-4h36a4,4,0,0,1,4,4v21A4,4,0,0,1,324,596Zm-32-8h28V575H292Z" fill="#102d3b"/><path d="M322.406,551H289.925a4,4,0,0,1-3.327-6.22c5.791-8.68,5.756-20.063-.093-29.706a4,4,0,0,1,3.42-6.074h32.481a4,4,0,0,1,3.42,6.074c-5.848,9.643-5.884,21.026-.092,29.706a4,4,0,0,1-3.328,6.22Zm-25.882-8h19.284a35.225,35.225,0,0,1,.166-26H296.358A35.235,35.235,0,0,1,296.524,543Z" fill="#102d3b"/><path d="M310.308,662c5.419-16,11.923-31,12.1-47H289.925c.176,16,6.679,31,12.1,47Z" fill="#ccdde5"/><path d="M322.406,615c0,.335-.026.666-.035,1H300.925c.113,15.714,2.851,30.671,6.23,46h-5.131c-5.42-16-11.923-31-12.1-47Z" fill="#fff"/><path d="M310.308,666h-8.284a4,4,0,0,1-3.789-2.717c-.953-2.815-1.941-5.6-2.921-8.363-4.751-13.394-9.237-26.044-9.388-39.876a4,4,0,0,1,4-4.044h32.481a4,4,0,0,1,4,4.044c-.152,13.832-4.638,26.482-9.388,39.876-.98,2.764-1.968,5.548-2.922,8.363A4,4,0,0,1,310.308,666Zm-5.428-8h2.572q1-2.895,2.026-5.755c4.032-11.368,7.864-22.174,8.744-33.245H294.11c.879,11.071,4.712,21.877,8.744,33.245C303.53,654.153,304.21,656.07,304.88,658Z" fill="#102d3b"/><rect x="298" y="658" width="16" height="14" rx="4" fill="#102d3b"/><path d="M306,686a4,4,0,0,1-4-4V669a4,4,0,0,1,8,0v13A4,4,0,0,1,306,686Z" fill="#102d3b"/><path d="M318,366H294a4,4,0,0,1-4-4V340a4,4,0,0,1,4-4h24a4,4,0,0,1,4,4v22A4,4,0,0,1,318,366Zm-20-8h16V344H298Z" fill="#102d3b"/><rect x="294" y="340" width="24" height="22" fill="#102d3b"/><path d="M303.333,308h5.333A6.334,6.334,0,0,1,315,314.334V340a0,0,0,0,1,0,0H297a0,0,0,0,1,0,0V314.333A6.333,6.333,0,0,1,303.333,308Z" fill="#ccdde5"/><path d="M315,344H297a4,4,0,0,1-4-4V314.333A10.644,10.644,0,0,1,303.666,304h5A10.345,10.345,0,0,1,319,314.333V340A4,4,0,0,1,315,344Zm-14-8h10V314.333A2.336,2.336,0,0,0,308.666,312h-5A2.651,2.651,0,0,0,301,314.333Z" fill="#102d3b"/><rect x="302" y="376" width="31" height="18" fill="#ccdde5"/><path d="M333,398H302a4,4,0,0,1-4-4V376a4,4,0,0,1,4-4h31a4,4,0,0,1,4,4v18A4,4,0,0,1,333,398Zm-27-8h23V380H306Z" fill="#102d3b"/><polygon points="333 455.333 322 440.833 322 394 333 394 333 455.333" fill="#ccdde5"/><path d="M333,459.334a4,4,0,0,1-3.187-1.583l-11-14.5a4,4,0,0,1-.813-2.418V394a4,4,0,0,1,4-4h11a4,4,0,0,1,4,4v61.333a4,4,0,0,1-4,4Zm-7-19.846,3,3.954V398h-3Z" fill="#102d3b"/></g></g></svg>