<svg xmlns="http://www.w3.org/2000/svg" viewBox="0 8.859999656677246 164.6999969482422 37.0099983215332" data-asc="0.9052734375" width="164.6999969482422" height="37.0099983215332"><defs/><g><g fill="#000000"><g transform="translate(0, 0)"><path d="M0 33.76L4.47 33.37Q4.79 36.06 5.94 37.78Q7.10 39.50 9.55 40.56Q11.99 41.63 15.04 41.63Q17.75 41.63 19.82 40.82Q21.90 40.01 22.91 38.61Q23.93 37.21 23.93 35.55Q23.93 33.86 22.95 32.60Q21.97 31.35 19.73 30.49Q18.29 29.93 13.35 28.75Q8.42 27.56 6.45 26.51Q3.88 25.17 2.62 23.18Q1.37 21.19 1.37 18.73Q1.37 16.02 2.91 13.66Q4.44 11.30 7.40 10.08Q10.35 8.86 13.96 8.86Q17.94 8.86 20.98 10.14Q24.02 11.43 25.66 13.92Q27.29 16.41 27.42 19.56L22.88 19.90Q22.51 16.50 20.40 14.77Q18.29 13.04 14.16 13.04Q9.86 13.04 7.90 14.61Q5.93 16.19 5.93 18.41Q5.93 20.34 7.32 21.58Q8.69 22.83 14.47 24.13Q20.24 25.44 22.39 26.42Q25.51 27.86 27.00 30.07Q28.49 32.28 28.49 35.16Q28.49 38.01 26.86 40.54Q25.22 43.07 22.16 44.47Q19.09 45.87 15.26 45.87Q10.40 45.87 7.12 44.46Q3.83 43.04 1.97 40.20Q0.10 37.35 0 33.76ZM34.77 45.26L34.77 9.47L39.50 9.47L39.50 27.22L57.28 9.47L63.70 9.47L48.68 23.97L64.36 45.26L58.11 45.26L45.36 27.15L39.50 32.86L39.50 45.26L34.77 45.26ZM69.12 45.26L69.12 9.47L73.85 9.47L73.85 45.26L69.12 45.26ZM82.01 45.26L82.01 9.47L86.74 9.47L86.74 41.04L104.37 41.04L104.37 45.26L82.01 45.26ZM109.81 45.26L109.81 9.47L114.55 9.47L114.55 41.04L132.18 41.04L132.18 45.26L109.81 45.26ZM136.21 33.76L140.67 33.37Q140.99 36.06 142.15 37.78Q143.31 39.50 145.75 40.56Q148.19 41.63 151.25 41.63Q153.96 41.63 156.03 40.82Q158.11 40.01 159.12 38.61Q160.13 37.21 160.13 35.55Q160.13 33.86 159.16 32.60Q158.18 31.35 155.93 30.49Q154.49 29.93 149.56 28.75Q144.63 27.56 142.65 26.51Q140.09 25.17 138.83 23.18Q137.57 21.19 137.57 18.73Q137.57 16.02 139.11 13.66Q140.65 11.30 143.60 10.08Q146.56 8.86 150.17 8.86Q154.15 8.86 157.19 10.14Q160.23 11.43 161.87 13.92Q163.50 16.41 163.62 19.56L159.08 19.90Q158.72 16.50 156.60 14.77Q154.49 13.04 150.37 13.04Q146.07 13.04 144.10 14.61Q142.14 16.19 142.14 18.41Q142.14 20.34 143.53 21.58Q144.90 22.83 150.67 24.13Q156.45 25.44 158.59 26.42Q161.72 27.86 163.21 30.07Q164.70 32.28 164.70 35.16Q164.70 38.01 163.06 40.54Q161.43 43.07 158.36 44.47Q155.30 45.87 151.46 45.87Q146.61 45.87 143.32 44.46Q140.04 43.04 138.17 40.20Q136.30 37.35 136.21 33.76Z"/></g></g></g></svg>