<svg xmlns="http://www.w3.org/2000/svg" viewBox="0 8.859999656677246 315.6700134277344 37.0099983215332" data-asc="0.9052734375" width="315.6700134277344" height="37.0099983215332"><defs/><g><g fill="#613583"><g transform="translate(0, 0)"><path d="M0 45.26L0 9.47L25.88 9.47L25.88 13.70L4.74 13.70L4.74 24.66L24.54 24.66L24.54 28.86L4.74 28.86L4.74 41.04L26.71 41.04L26.71 45.26L0 45.26ZM29.61 45.26L43.46 26.61L31.25 9.47L36.89 9.47L43.38 18.65Q45.41 21.51 46.26 23.05Q47.46 21.09 49.10 18.97L56.30 9.47L61.45 9.47L48.88 26.34L62.43 45.26L56.57 45.26L47.56 32.50Q46.80 31.40 46.00 30.10Q44.80 32.06 44.29 32.79L35.30 45.26L29.61 45.26ZM66.60 45.26L66.60 9.47L80.10 9.47Q83.67 9.47 85.55 9.81Q88.18 10.25 89.97 11.49Q91.75 12.72 92.83 14.94Q93.92 17.16 93.92 19.82Q93.92 24.39 91.02 27.55Q88.11 30.71 80.52 30.71L71.34 30.71L71.34 45.26L66.60 45.26M71.34 26.49L80.59 26.49Q85.18 26.49 87.11 24.78Q89.04 23.07 89.04 19.97Q89.04 17.72 87.90 16.13Q86.77 14.53 84.91 14.01Q83.72 13.70 80.49 13.70L71.34 13.70L71.34 26.49ZM100.05 45.26L100.05 9.47L125.93 9.47L125.93 13.70L104.79 13.70L104.79 24.66L124.58 24.66L124.58 28.86L104.79 28.86L104.79 41.04L126.76 41.04L126.76 45.26L100.05 45.26ZM133.37 45.26L133.37 9.47L149.24 9.47Q154.03 9.47 156.52 10.44Q159.01 11.40 160.50 13.84Q161.99 16.28 161.99 19.24Q161.99 23.05 159.52 25.66Q157.06 28.27 151.90 28.98Q153.78 29.88 154.76 30.76Q156.84 32.67 158.69 35.52L164.92 45.26L158.96 45.26L154.22 37.82Q152.15 34.59 150.81 32.89Q149.46 31.18 148.40 30.49Q147.34 29.81 146.24 29.54Q145.43 29.37 143.60 29.37L138.11 29.37L138.11 45.26L133.37 45.26M138.11 25.27L148.29 25.27Q151.54 25.27 153.37 24.60Q155.20 23.93 156.15 22.45Q157.10 20.97 157.10 19.24Q157.10 16.70 155.26 15.06Q153.42 13.43 149.44 13.43L138.11 13.43L138.11 25.27ZM170.21 45.26L170.21 9.47L174.95 9.47L174.95 45.26L170.21 45.26ZM183.40 45.26L183.40 9.47L209.28 9.47L209.28 13.70L188.13 13.70L188.13 24.66L207.93 24.66L207.93 28.86L188.13 28.86L188.13 41.04L210.11 41.04L210.11 45.26L183.40 45.26ZM216.60 45.26L216.60 9.47L221.46 9.47L240.26 37.57L240.26 9.47L244.80 9.47L244.80 45.26L239.94 45.26L221.14 17.14L221.14 45.26L216.60 45.26ZM278.30 32.71L283.03 33.91Q281.54 39.75 277.67 42.81Q273.80 45.87 268.21 45.87Q262.43 45.87 258.80 43.52Q255.18 41.16 253.28 36.69Q251.39 32.23 251.39 27.10Q251.39 21.51 253.53 17.35Q255.66 13.18 259.61 11.02Q263.55 8.86 268.29 8.86Q273.66 8.86 277.32 11.60Q280.98 14.33 282.42 19.29L277.76 20.39Q276.51 16.48 274.15 14.70Q271.78 12.92 268.19 12.92Q264.06 12.92 261.29 14.89Q258.52 16.87 257.40 20.20Q256.27 23.54 256.27 27.08Q256.27 31.64 257.60 35.05Q258.94 38.45 261.74 40.14Q264.55 41.82 267.82 41.82Q271.80 41.82 274.56 39.53Q277.32 37.23 278.30 32.71ZM288.96 45.26L288.96 9.47L314.84 9.47L314.84 13.70L293.70 13.70L293.70 24.66L313.50 24.66L313.50 28.86L293.70 28.86L293.70 41.04L315.67 41.04L315.67 45.26L288.96 45.26Z"/></g></g></g></svg>